<?xml version="1.0" encoding="UTF-8"?>
<svg width="200px" height="200px" viewBox="0 0 200 200" version="1.1" xmlns="http://www.w3.org/2000/svg" xmlns:xlink="http://www.w3.org/1999/xlink">
    <!-- Generator: Sketch 51.2 (57519) - http://www.bohemiancoding.com/sketch -->
    <title>Artboard</title>
    <desc>Created with Sketch.</desc>
    <defs></defs>
    <g id="Artboard" stroke="none" stroke-width="1" fill="none" fill-rule="evenodd">
        <g id="Group" transform="translate(5.000000, 5.000000)">
            <rect id="Rectangle" stroke="#3F51B5" fill="#3F51B5" x="0.5" y="0.5" width="189" height="189" rx="8"></rect>
            <g id="speaker" transform="translate(93.789809, 97.420382) rotate(-24.000000) translate(-93.789809, -97.420382) translate(26.624204, 39.936306)" fill="#FFFFFF" fill-rule="nonzero">
                <path d="M130.830714,40.9335957 C128.966151,39.0763734 126.716348,38.1468512 124.080521,38.1468512 L124.08235,38.1468512 L124.08235,9.60940086 C124.08235,7.03245613 123.136879,4.80326879 121.249071,2.92053736 C119.36048,1.03780592 117.120341,0.0963100555 114.53675,0.0963100555 C91.6195272,19.1211902 69.3479412,28.634281 47.7230363,28.634281 L11.9312161,28.634281 C8.65027536,28.634281 5.8410253,29.7980709 3.50451071,32.1269521 C1.16773494,34.456354 0,37.2561133 0,40.525189 L0,54.7936538 C0,58.0637707 1.16590668,60.86353 3.50294363,63.1918907 C5.83919705,65.5220734 8.6484471,66.6845618 11.9296491,66.6845618 L21.0273254,66.6845618 C20.1824088,69.3614608 19.635237,72.0997899 19.3871162,74.896686 C19.1392566,77.6964453 19.0520225,80.1354324 19.1261976,82.2172914 C19.2003727,84.2981092 19.5738598,86.7995677 20.2448307,89.7229683 C20.9155405,92.6458483 21.4877855,94.8503074 21.9599985,96.3360852 C22.4319505,97.8236851 23.2275042,100.163759 24.3458761,103.35891 C25.4639869,106.554842 26.1973798,108.722079 26.5450101,109.861401 C28.8313782,111.942219 32.112319,113.31763 36.3875713,113.985814 C40.6641296,114.652956 44.8518867,114.369753 48.9531932,113.130737 C53.0542386,111.892502 55.8258788,109.834851 57.2673302,106.962989 C55.3784778,105.47617 53.8500535,104.225441 52.6820574,103.209239 C51.5135389,102.193819 50.3207307,100.956625 49.1023269,99.4945345 C47.8839231,98.0337452 47.0523266,96.6705674 46.6046644,95.4076042 C46.1575245,94.1443807 46.0081297,92.7077991 46.1575245,91.0965579 C46.306397,89.4858373 46.8783808,87.8628827 47.8726924,86.2292559 C45.98384,84.2962871 44.9884837,82.005149 44.8897577,79.3542798 C44.7910318,76.7049724 45.5615122,74.2144464 47.2017214,71.8860857 C48.8416695,69.557725 51.1045314,67.9220159 53.9874341,66.9813009 C73.6247606,68.6159689 93.8074305,78.0288452 114.537533,95.2217519 C117.121385,95.2217519 119.361263,94.280256 121.248026,92.397004 C123.137401,90.515574 124.081305,88.2850852 124.081305,85.7091816 L124.081305,57.1722519 C126.718176,57.1722519 128.967718,56.2437709 130.831497,54.3855074 C132.694231,52.527244 133.627166,50.2853021 133.627166,47.6602023 C133.626382,45.0340613 132.693448,42.7918591 130.830714,40.9335957 Z M114.537011,83.0341048 C95.0984423,68.221358 76.010377,59.7723631 57.2688973,57.6925865 L57.2688973,37.6262563 C75.8604598,35.594895 94.9511369,27.0982657 114.537011,12.1361082 L114.537011,83.0341048 Z" id="Shape"></path>
            </g>
        </g>
    </g>
</svg>