<svg height="64" viewBox="0 0 674 64" width="674" xmlns="http://www.w3.org/2000/svg"><path d="m96.181175 4.15160681c-.7380117.08437716-1.4263392.2390663-2.0650032.46407206-.6386639.22500576-1.1992606.47110211-1.6818067.73829645s-.8870272.52032202-1.2134554.75939064c-.3264283.23906862-.5322169.41485173-.6173721.52735461-.1986955.19688004-.4754457.49219567-.830259.88595574-.3548133.39376008-.7663906.94923472-1.2347442 1.66644057-.4683535.71720586-.9792771 1.63830932-1.5327858 2.76333812-.5535088 1.1250288-1.1282977 2.5312937-1.7243841 4.2188369-.9934773 2.8406977-2.1146705 5.9626058-3.3636134 9.3658179s-2.5404439 6.9188743-3.874542 10.5470922-2.6681761 7.2704439-4.0022742 10.9267875c-1.334098 3.6563436-2.5830222 7.1438805-3.7468098 10.4627155l-3.7468099 8.4376738h-1.3198989c-1.5895636-4.1344809-3.0655649-8.036866-4.428048-11.7072724s-2.6752727-7.2071627-3.9384081-10.6103748-2.490771-6.7009032-3.6829438-9.8931724c-1.1921727-3.1922692-2.3843276-6.3633966-3.5765003-9.5134772-.9367071 2.5875662-1.9017849 5.2875948-2.8952622 8.1001668-.9934772 2.812572-1.9869396 5.6391644-2.9804169 8.4798621s-1.9869396 5.6602589-2.9804169 8.458768-1.958555 5.4774437-2.8952622 8.0368842l-3.8319646 8.6486157h-1.4050537c-1.8450292-4.7532467-3.611973-9.2322004-5.3008844-13.4369955s-3.313932-8.2478067-4.8751105-12.129156c-1.5611786-3.8813494-3.0797568-7.6501393-4.5557802-11.3064829s-2.9378323-7.3126323-4.3854706-10.9689759c-.425776-1.0969031-.8018725-2.0531632-1.1283007-2.8688091-.3264283-.8156458-.6315631-1.5609662-.9154138-2.2359835-.2838506-.6750173-.5747932-1.3289305-.8728364-1.9617592s-.63156268-1.30080448-1.00056852-2.00394748c-.17031039-.33750864-.42577215-.76641943-.76639293-1.28674525-.34062078-.52032581-.80187117-1.0336125-1.383765-1.53987546-.58189383-.50626295-1.31279829-.94220507-2.19273531-1.30783943s-1.95855331-.57657409-3.23588124-.63282553v-.97033249h26.6960202v.88595575c-.2838506.02812572-.7805818.09140764-1.4902085.18984766-.7096266.09844002-1.4263387.2953171-2.1501579.59063716-.7238191.29532006-1.3624735.73126218-1.9159823 1.30783944-.5535088.57657725-.830259 1.34299162-.830259 2.2992661 0 .33750863.1703078 1.04064108.5109286 2.10941843.3406208 1.0687774.8018712 2.404729 1.383765 4.007895.5818939 1.6031661 1.2631252 3.4031851 2.0437145 5.4001113.7805893 1.9969261 1.6037438 4.0922608 2.4694883 6.2860669.8657445 2.1938062 1.7598606 4.4297673 2.6823752 6.7079506.9225147 2.2781834 1.8166308 4.4789879 2.6823753 6.6024798.8657445 2.1234918 1.6818028 4.1344506 2.4481996 6.0329367l2.0011371 4.9571333c.3122357-.8718973.8018707-2.2430055 1.4689198-4.1133659.667049-1.8703604 1.4547227-4.0922589 2.3630448-6.6657623s1.8946883-5.4141584 2.9591282-8.5220505c1.06444-3.107892 2.1501524-6.3212073 3.25717-9.6400423-.9083221-2.3906862-1.8166306-4.6828979-2.7249526-6.8767041-.9083221-2.1938061-1.8024383-4.1344517-2.6823753-5.82199488-.2554656-.42188579-.5818889-.90001586-.9792798-1.43440454-.3973909-.53438867-.9296029-1.04064404-1.596652-1.51878127-.667049-.47813724-1.4902035-.88595406-2.4694883-1.2234627-.9792847-.33750864-2.1785357-.53438572-3.597789-.59063716v-.97033249h29.1229312v.88595575c-.2270806.02812572-.5889847.07734499-1.0857233.14765929-.4967387.0703143-1.0360468.16875284-1.6179407.29531858-.5818938.12656574-1.1850674.2882862-1.8095388.48516624s-1.1992604.45703905-1.7243841.78048483c-.5251237.32344577-.9508933.7031373-1.2773215 1.13908595-.3264283.43594866-.48964.94923535-.48964 1.53987547 0 .28125719.177404.97735832.5322173 2.08832423.3548134 1.110966.8302561 2.5101995 1.4263424 4.1977427.5960864 1.6875432 1.2844139 3.5930321 2.0650032 5.716524.7805893 2.1234918 1.6037438 4.3313277 2.4694883 6.6235739s1.7385721 4.5985206 2.6185092 6.9188925c.879937 2.3203719 1.7172838 4.5211764 2.5120657 6.6024797.7947818 2.0813033 1.5256862 3.9727296 2.1927353 5.6743356.667049 1.7016061 1.199261 3.0727143 1.5966519 4.113366.2838507-.7593945.6812356-1.8422184 1.1921668-3.2485044.5109311-1.406286 1.0928163-3.0234907 1.7456727-4.8516624.6528565-1.8281718 1.3624725-3.803974 2.1288693-5.9274659.7663967-2.1234918 1.532782-4.2891398 2.2991788-6.4970088.7663967-2.207869 1.5114935-4.3875796 2.2353127-6.5391971.7238191-2.1516176 1.3979543-4.1696077 2.0224257-6.054031.425776-1.3219088.7521994-2.453952.9792799-3.3961636.2270805-.9422117.3973883-1.7367513.5109286-2.3836429.1135403-.6468915.1774057-1.1812722.1915982-1.60315799.0141926-.4218858.0212887-.77345203.0212887-1.05470922 0-.8437716-.2483656-1.55393537-.7451042-2.13051263-.4967387-.57657726-1.1212007-1.04064467-1.8734049-1.39221617-.7522043-.3515715-1.5611665-.62579315-2.426911-.82267319s-1.6534182-.33750653-2.3630448-.42188369v-.88595575h19.2024005zm40.448515 40.33208059c0 2.9532006-.546404 5.7376051-1.639229 8.353297-1.092825 2.615692-2.583018 4.9008724-4.470625 6.85561-1.887607 1.9547375-4.108705 3.4945975-6.663361 4.6196263s-5.279581 1.6875348-8.174858 1.6875348c-1.532793 0-3.122333-.1898458-4.768667-.569543s-3.250066-.9632971-4.811244-1.7508173c-1.561179-.7875202-3.03718-1.7648743-4.428048-2.9320916-1.390869-1.1672174-2.6114081-2.5523883-3.6616555-4.1555544-1.0502474-1.603166-1.8804981-3.4102164-2.490777-5.4212053-.6102789-2.010989-.9154138-4.2399189-.9154138-6.6868565 0-2.7281948.5038274-5.3508789 1.5114972-7.8681308s2.4339979-4.7391505 4.2790271-6.6657623c1.845029-1.9266118 4.08032-3.4664718 6.705938-4.6196263 2.625619-1.1531546 5.556333-1.7297232 8.79223-1.7297232 2.384346 0 4.811232.4289108 7.280733 1.2867453 2.469501.8578344 4.697695 2.1515981 6.684649 3.8813299 1.986955 1.7297318 3.611975 3.902411 4.875111 6.518103 1.263135 2.6156919 1.894693 5.6813494 1.894693 9.1970644zm-9.963108-.0843767c0-1.3500346-.078057-2.7703621-.234175-4.2610253-.156118-1.4906631-.418676-2.9531786-.787682-4.3875903-.369006-1.4344118-.844448-2.80552-1.426342-4.113366s-1.29151-2.4539519-2.128869-3.4383521c-.83736-.9844002-1.81663-1.7719085-2.93784-2.3625486s-2.391423-.8859558-3.810676-.8859558c-1.731489 0-3.264259.5695373-4.598357 1.708629-1.334099 1.1390916-2.462388 2.6367637-3.384903 4.4930612-.922514 1.8562976-1.625034 3.9727262-2.10758 6.3493496-.482546 2.3766233-.723816 4.7883676-.723816 7.2353052 0 2.5875662.205789 5.0766551.617372 7.4673413.411584 2.3906862 1.071527 4.5071148 1.979849 6.3493495.908322 1.8422346 2.086284 3.3188128 3.533923 4.4297787 1.447638 1.110966 3.193293 1.6664406 5.237018 1.6664406 1.334098 0 2.526253-.3164096 3.5765-.9492383 1.050248-.6328287 1.972749-1.4695563 2.76753-2.510208.794782-1.0406516 1.476014-2.2500394 2.043715-3.6281997.567701-1.3781602 1.028952-2.8195818 1.383765-4.3243078s.610275-3.0164608.766393-4.5352496c.156118-1.5187889.234175-2.9531791.234175-4.3032136zm61.609476 21.0941844v-.9703325c1.561179-.0843772 2.788814-.3234422 3.682944-.7172023.894129-.3937601 1.341188-1.0406419 1.341188-1.940665v-21.4316913c0-1.603166-.134828-3.0516189-.404486-4.345402s-.695427-2.3977011-1.277321-3.311787c-.581894-.9140858-1.341183-1.6242496-2.27789-2.1305126-.936707-.5062629-2.086285-.7593906-3.448768-.7593906-1.703104 0-3.157817.4218795-4.364182 1.265651-1.206366.8437716-2.334655 1.8984703-3.384902 3.1641277v27.8021351c0 .4218858.149019.7804833.447062 1.0758034.298043.29532.681236.5414164 1.149589.7382964.468354.1968801.979278.3445379 1.532786.4429779.553509.09844 1.085721.1898472 1.596652.2742244v.8437674h-19.032091v-.9703325c1.589564-.0843772 2.859777-.3234422 3.810676-.7172023.9509-.3937601 1.426343-1.0406419 1.426343-1.940665v-21.516068c0-1.6031661-.127731-3.0516189-.383197-4.345402-.255465-1.2937831-.674139-2.3906698-1.256033-3.2906928s-1.348279-1.5961242-2.299178-2.0883243c-.9509-.4922001-2.107574-.7382964-3.470057-.7382964-.823167 0-1.57536.0843759-2.256602.2531302-.681241.1687543-1.326992.4148507-1.937271.7382965-.610279.3234457-1.206356.7242312-1.78825 1.2023685-.581894.4781372-1.170875 1.0406432-1.766961 1.6875347v28.2662071c.11354.5625144.312232.9984565.596083 1.3078395.283851.3093829.638659.5414166 1.064435.696108.425776.1546915.901218.274224 1.426342.3586012.525124.0843771 1.08572.168753 1.681807.2531302v.8437674h-18.73405v-.8437674c1.362484-.1406286 2.53335-.4711009 3.512635-.9914267.979284-.5203258 1.468919-1.2304896 1.468919-2.1305126v-28.6880908c0-.4500115-.049673-.8015777-.14902-1.0547092-.099348-.2531315-.347714-.5062592-.745105-.7593907-.510931-.3093829-1.128297-.6398551-1.852116-.9914266s-1.440531-.6820438-2.150158-.9914267v-.5484488l13.241567-4.9782275h.553506v9.3236295l.170309.0843767c.596087-1.0406516 1.34828-2.1094129 2.256602-3.206316s1.958554-2.0953511 3.150726-2.9953742c1.192173-.900023 2.504963-1.6453434 3.938408-2.2359835 1.433446-.5906401 2.959121-.8859558 4.577069-.8859558 1.362483 0 2.618504.2320337 3.768099.6961081s2.150153 1.1320502 3.001705 2.0039475c.851552.8718974 1.546976 1.9125334 2.086292 3.1219393.539316 1.209406.908317 2.5734829 1.107012 4.0922718h.255465c.510931-1.0406516 1.220547-2.1445696 2.128869-3.3117869.908322-1.1672174 1.972746-2.2430101 3.193304-3.2274103 1.220557-.9844002 2.568828-1.7930025 4.044851-2.4258312 1.476024-.6328287 3.037179-.9492383 4.683513-.9492383 1.674718 0 3.15072.323441 4.428048.9703325 1.277327.6468916 2.341751 1.5469011 3.193303 2.7000556s1.490207 2.5172315 1.915983 4.0922718.63866 3.3047461.63866 5.1891694v25.5661515c0 .4218858.177404.7875146.532218 1.0968975.354813.309383.801871.5625106 1.341187.7593907.539317.19688 1.107009.3515692 1.703096.464072.596086.1125029 1.149587.2109415 1.660518.2953186v.7593907zm58.416172-13.7534083c-.227081 1.3219089-.7451 2.798487-1.554075 4.4297788-.808974 1.6312917-1.915975 3.1641204-3.321036 4.5985322-1.40506 1.4344117-3.108139 2.6367682-5.109286 3.6071055s-4.307399 1.4554987-6.918825 1.4554987c-3.122357 0-5.932436-.5835999-8.430322-1.7508173s-4.619637-2.7562967-6.365319-4.7672857c-1.745681-2.0109889-3.086856-4.35242-4.023563-7.0243634s-1.405054-5.5266611-1.405054-8.5642388c0-2.4469377.439962-4.8727446 1.319899-7.2774937.879937-2.404749 2.135958-4.5563343 3.768099-6.4548204s3.619066-3.4383461 5.960834-4.6196264c2.341768-1.1812802 4.988635-1.7719115 7.940682-1.7719115 2.35596 0 4.548674.281253 6.578206.8437674s3.817764 1.4343986 5.36475 2.6156789c1.546987 1.1812802 2.795911 2.671921 3.74681 4.4719671.9509 1.800046 1.511497 3.9375687 1.681807 6.412632h-27.292104c0 .4218858-.014192.9000159-.042577 1.4344046-.028385.5343886-.042577 1.0547067-.042577 1.5609696 0 2.4750634.340615 4.8024318 1.021857 6.9821751.681241 2.1797432 1.667608 4.0852322 2.959128 5.7165239 1.291521 1.6312918 2.888157 2.9180242 4.789956 3.8602358s4.087416 1.4133103 6.556917 1.4133103c1.362483 0 2.696561-.1828144 4.002274-.5484488 1.305713-.3656343 2.490772-.8718897 3.555212-1.5187812 1.06444-.6468916 1.994037-1.4203373 2.788819-2.3203603.794781-.9000231 1.362474-1.8844085 1.703095-2.9531858zm-11.24043-18.9847659c0-.9844002-.163211-1.9406604-.48964-2.8688091-.326428-.9281488-.794774-1.7508137-1.405053-2.4680196-.610279-.7172058-1.362472-1.2867431-2.256602-1.7086289-.894129-.4218858-1.894688-.6328256-3.001705-.6328256-1.447639 0-2.746236.4640675-3.895831 1.3922162-1.149595.9281488-2.128865 2.0250354-2.937839 3.2906928-.808975 1.2656574-1.440533 2.5523898-1.894694 3.8602357-.454161 1.307846-.709623 2.3414507-.766393 3.1008451 1.135403 0 2.164346-.0070313 3.08686-.0210942.922515-.0140628 1.830823-.0351568 2.724953-.0632825s1.81663-.056251 2.76753-.0843767c.9509-.0281258 2.036612-.0562511 3.25717-.0843768.624471 0 1.263126-.0421879 1.915982-.1265651.652857-.0843771 1.234742-.2390663 1.745673-.464072.397391-.3937601.688333-.8156396.872836-1.2656511s.276753-1.0687681.276753-1.8562882zm37.382944 32.7381742v-.9703325c1.589564-.0843772 2.859776-.3234422 3.810676-.7172023s1.426342-1.0406419 1.426342-1.940665v-21.0941844c0-1.5187888-.134827-2.9391164-.404485-4.2610252s-.716716-2.4680147-1.341187-3.4383521c-.624472-.9703373-1.426338-1.7297203-2.405623-2.2781719-.979284-.5484515-2.178535-.8226732-3.597789-.8226732-1.617948 0-3.03718.3234409-4.257738.9703325s-2.441097 1.6172143-3.661655 2.9109975v28.1818303c.11354.5625144.312233.9984565.596083 1.3078395.283851.3093829.631563.5414166 1.043146.696108.411584.1546915.872834.274224 1.383765.3586012.510931.0843771 1.064432.168753 1.660518.2531302v.8437674h-18.648894v-.8437674c1.362483-.1406286 2.533349-.4711009 3.512634-.9914267s1.46892-1.2304896 1.46892-2.1305126v-28.6880908c0-.4500115-.049673-.8015777-.149021-1.0547092s-.347713-.5062592-.745104-.7593907c-.510932-.3093829-1.128297-.6398551-1.852117-.9914266-.723819-.3515715-1.440531-.6820438-2.150158-.9914267v-.5484488l13.241567-4.9782275h.553506v9.4080062l.17031.0843768c.652856-.9844002 1.454722-2.0320676 2.405622-3.1430335s2.036612-2.130508 3.25717-3.0586567c1.220558-.9281488 2.54754-1.6945632 3.980985-2.2992661 1.433446-.604703 2.95912-.90705 4.577069-.90705 1.703104 0 3.200394.3304723 4.491914.9914267 1.291521.6609544 2.377233 1.5750266 3.25717 2.742244.879937 1.1672173 1.546976 2.5664509 2.001137 4.1977427.454161 1.6312917.681238 3.4172481.681238 5.3579228v25.2286446c0 .4218858.184501.7875146.553506 1.0968975.369006.309383.82316.5625106 1.362477.7593907.539316.19688 1.114105.3515692 1.724384.464072.610279.1125029 1.170875.2109415 1.681807.2953186v.7593907zm80.045483-9.2392528c-.05677 1.0969031-.33352 2.2148837-.830259 3.3539753-.496738 1.1390917-1.156681 2.165665-1.979848 3.0797509s-1.802437 1.6664377-2.93784 2.2570778c-1.135402.5906401-2.384326.8859557-3.746809.8859557-1.078633 0-2.114672-.1617204-3.108149-.4851662-.993478-.3234458-1.873402-.8156385-2.639798-1.4765929-.766397-.6609545-1.390859-1.4976821-1.873405-2.510208s-.738008-2.2219137-.766393-3.6281997l-.17031-.0843767c-.454161.9281487-1.057334 1.8703462-1.809539 2.8266207-.752204.9562744-1.653416 1.8281587-2.703663 2.6156788-1.050248.7875202-2.235307 1.4273707-3.555212 1.9195708-1.319906.4922001-2.760426.7382965-4.321605.7382965-.993477 0-1.986939-.1617205-2.980417-.4851663-.993477-.3234457-1.887593-.8297011-2.682375-1.5187812-.794782-.6890802-1.440532-1.5679957-1.937271-2.6367731-.496738-1.0687773-.745104-2.3484784-.745104-3.8391416 0-.8156458.170308-1.6312795.510929-2.4469253.34062-.8156459.816063-1.6031543 1.426342-2.3625487s1.326991-1.4906522 2.150158-2.1937952 1.717283-1.3359622 2.682375-1.8984766c1.95857-1.1250288 3.67584-2.0953515 5.151864-2.9109974 1.476023-.8156459 2.77462-1.5187783 3.89583-2.1094185 1.12121-.5906401 2.086288-1.1039268 2.895263-1.5398754.808974-.4359487 1.511494-.8367342 2.10758-1.2023685v-7.7626599c-.05677-.4781372-.234174-1.0125179-.532217-1.603158s-.709621-1.1531461-1.234744-1.6875348c-.525124-.5343886-1.192163-.9843934-2.001137-1.3500278-.808975-.3656343-1.752764-.5765741-2.831397-.6328255-.936707.0562514-1.759861.2390659-2.469488.5484488s-1.3128.6750118-1.809539 1.0968976c-.496738.4218858-.872835.8578279-1.1283 1.3078394-.255466.4500115-.383197.8437657-.383197 1.1812743v5.2735461c0 .4218858-.149019.8297027-.447062 1.2234627-.298044.3937601-.681236.7453263-1.14959 1.0547093-.468353.3093829-.993469.5554792-1.575363.7382964s-1.170875.2742244-1.766962.2742244c-.567701 0-1.099913-.0984385-1.596651-.2953186-.496739-.19688-.943797-.4640703-1.341188-.801579-.397391-.3375086-.709622-.7312628-.936703-1.1812743-.22708-.4500115-.340619-.9281416-.340619-1.4344045 0-.7875202.156116-1.4836213.468352-2.0883243.312235-.604703.70962-1.1531463 1.192166-1.6453464.482547-.4922001 1.021855-.9422048 1.617941-1.3500278.596086-.4078229 1.192164-.7945458 1.78825-1.1601801 1.447639-.8437716 2.987505-1.6594053 4.619646-2.4469254 1.632142-.7875202 3.221681-1.4976839 4.768668-2.1305126 1.546986-.6328287 2.98041-1.1390841 4.300315-1.5187813 1.319906-.3796972 2.363041-.5836056 3.129438-.6117314 1.788259.0562515 3.384895.4710996 4.789956 1.2445569s2.519158 1.9617511 3.342325 3.5649172c.11354.19688.198694.4851643.255464.8648615.05677.3796973.106443.8015767.149021 1.2656511.042577.4640744.070962.9492358.085155 1.4554987.014192.506263.021288 1.0125183.021288 1.5187813 0 2.0531776-.014192 3.8531966-.042577 5.4001112s-.05677 3.0375554-.085155 4.4719671-.05677 2.8969272-.085155 4.3875904c-.028385 1.4906631-.042577 3.2203689-.042577 5.1891693 0 1.2937831.127731 2.3555131.383196 3.1852219.255466.8297087.588985 1.4836219 1.000569 1.9617591.411583.4781373.87993.8086095 1.405054.9914267.525123.1828172 1.071528.2742244 1.639229.2742244 1.362483 0 2.348849-.302347 2.959128-.9070499.610279-.604703 1.028953-1.3429921 1.256033-2.2148894zm-17.967656-14.3440454c-.993477.703143-2.178536 1.4203381-3.555212 2.1516068-1.376675.7312687-2.703657 1.560965-3.980985 2.4891138-1.277328.9281487-2.36304 1.9828474-3.25717 3.1641276-.89413 1.1812803-1.341188 2.5875452-1.341188 4.2188369 0 .7312687.141924 1.4273698.425774 2.0883243.283851.6609544.667044 1.2445543 1.14959 1.7508173.482546.5062629 1.043142.9140797 1.681806 1.2234627.638664.3093829 1.326992.464072 2.065004.464072 1.163787 0 2.306269-.1617204 3.427479-.4851662s1.994038-.8226698 2.618509-1.4976871c.312236-.3656344.518024-.7382946.617372-1.1179918s.149021-.7945453.149021-1.2445569zm42.364498 23.5832982v-.9703325c1.589564-.0843772 2.859776-.3234422 3.810676-.7172023.950899-.3937601 1.426342-1.0406419 1.426342-1.940665v-21.0941844c0-1.5187888-.134827-2.9391164-.404485-4.2610252s-.716716-2.4680147-1.341188-3.4383521c-.624471-.9703373-1.426337-1.7297203-2.405622-2.2781719-.979285-.5484515-2.178536-.8226732-3.597789-.8226732-1.617949 0-3.037181.3234409-4.257738.9703325-1.220558.6468916-2.441098 1.6172143-3.661655 2.9109975v28.1818303c.11354.5625144.312232.9984565.596083 1.3078395.283851.3093829.631562.5414166 1.043146.696108.411583.1546915.872834.274224 1.383765.3586012.510931.0843771 1.064432.168753 1.660518.2531302v.8437674h-18.648895v-.8437674c1.362484-.1406286 2.53335-.4711009 3.512635-.9914267.979284-.5203258 1.468919-1.2304896 1.468919-2.1305126v-28.6880908c0-.4500115-.049673-.8015777-.14902-1.0547092-.099348-.2531315-.347714-.5062592-.745105-.7593907-.510931-.3093829-1.128297-.6398551-1.852116-.9914266s-1.440531-.6820438-2.150158-.9914267v-.5484488l13.241567-4.9782275h.553506v9.4080062l.170309.0843768c.652857-.9844002 1.454723-2.0320676 2.405623-3.1430335.950899-1.1109659 2.036612-2.130508 3.25717-3.0586567 1.220557-.9281488 2.547539-1.6945632 3.980985-2.2992661 1.433446-.604703 2.95912-.90705 4.577069-.90705 1.703104 0 3.200393.3304723 4.491914.9914267 1.29152.6609544 2.377233 1.5750266 3.25717 2.742244.879937 1.1672173 1.546976 2.5664509 2.001137 4.1977427.454161 1.6312917.681238 3.4172481.681238 5.3579228v25.2286446c0 .4218858.1845.7875146.553506 1.0968975.369006.309383.82316.5625106 1.362476.7593907.539317.19688 1.114106.3515692 1.724385.464072.610278.1125029 1.170875.2109415 1.681806.2953186v.7593907zm52.75338.5062604h-.510929v-8.8173691l-.085155-.0843767c-1.617949 2.8969491-3.562296 5.0766597-5.833102 6.5391971-2.270805 1.4625375-5.095076 2.1937952-8.472899 2.1937952-2.12888 0-4.17967-.4570361-6.152432-1.371122s-3.725514-2.2500375-5.258307-4.007895c-1.532794-1.7578575-2.760429-3.9305368-3.682944-6.518103s-1.383765-5.5547852-1.383765-8.9017458c0-3.009452.525116-5.8149505 1.575363-8.4165796 1.050248-2.6016291 2.526249-4.8657156 4.428048-6.7923274 1.9018-1.9266118 4.193859-3.4453779 6.876248-4.5563438s5.655679-1.6664406 8.919962-1.6664406c1.759874 0 3.391991.1476578 4.896399.4429779 1.504409.2953201 2.895256.639855 4.172584 1.033615l-.085155-14.2596686-7.153001-2.78443236v-.50626043l15.498169-4.76728567h.723815v55.39332826c.198696.1406286.532215.3164117 1.000569.5273546.468353.2109429.993469.4500079 1.575363.7172023.581894.2671943 1.192163.5343846 1.830827.801579.638664.2671943 1.227646.499228 1.766962.6961081v.6328255zm-.596084-32.0631603c-.539316-1.1812802-1.192163-2.2992608-1.95856-3.3539753-.766396-1.0547145-1.575359-1.9828494-2.42691-2.7844324-.851552-.801583-1.72438-1.4414335-2.61851-1.9195708-.894129-.4781372-1.72438-.7172022-2.490777-.7172022-2.043724 0-3.78938.5273493-5.237018 1.5820638s-2.632697 2.4469168-3.555212 4.1766485c-.922514 1.7297318-1.596649 3.705534-2.022425 5.9274658-.425776 2.2219319-.638661 4.5141437-.638661 6.8767042 0 2.2781833.262558 4.4860192.787681 6.6235739.525124 2.1375547 1.305702 4.0360123 2.341757 5.6954297 1.036055 1.6594175 2.327556 2.9883378 3.874542 3.9868009s3.342314 1.4976871 5.386039 1.4976871c1.021862 0 2.001132-.1757831 2.937839-.5273546s1.788247-.8507956 2.554643-1.4976871c.766397-.6468916 1.419244-1.4414312 1.95856-2.3836428.539316-.9422117.908317-2.0039417 1.107012-3.1852219zm96.480354-9.9986434c-.823167-2.7281948-2.00113-5.3297849-3.533923-7.8048482-1.532794-2.4750634-3.328122-4.654774-5.386039-6.53919721-2.057917-1.88442323-4.342881-3.37506402-6.854959-4.4719671-2.512078-1.09690307-5.158946-1.64534638-7.940682-1.64534638-2.611426 0-5.024121.40781682-7.238156 1.22346269-2.214035.81564588-4.215152 1.94768912-6.003411 3.39616369-1.788259 1.44847458-3.35651 3.15708641-4.704801 5.12588681s-2.483676 4.1133544-3.406191 6.4337262c-.922514 2.3203719-1.617938 4.7532102-2.086292 7.2985879-.468353 2.5453776-.702527 5.111811-.702527 7.6993773 0 4.1626065.560597 8.0579603 1.681807 11.6861781 1.12121 3.6282179 2.739135 6.7782513 4.853822 9.4501946 2.114687 2.6719434 4.676401 4.7813408 7.685218 6.3282554 3.008817 1.5469145 6.400781 2.3203602 10.175995 2.3203602 1.930184 0 3.789378-.2671903 5.577637-.801579 1.788259-.5343886 3.491338-1.2656464 5.109286-2.1937951 1.617949-.9281488 3.115239-2.0320667 4.491915-3.311787 1.376675-1.2797202 2.611407-2.6578598 3.704232-4.1344601s2.022422-3.0234917 2.788819-4.6407206c.766396-1.6172289 1.334089-3.2414649 1.703095-4.8727566h1.064435l-.255465 19.6175915h-1.064434c-.369006-.506263-.752199-.9984557-1.14959-1.4765929-.39739-.4781373-.773487-.907048-1.1283-1.2867453-.354814-.3796972-.674141-.6890755-.957991-.9281441-.283851-.2390686-.482544-.3586011-.596084-.3586011s-.624464.3093783-1.532786.9281441-2.221111 1.3008043-3.938408 2.0461359c-1.717296.7453316-3.846144 1.42737-6.386607 2.0461359-2.540464.6187658-5.499562.9281441-8.877385.9281441-5.506703 0-10.452726-.7875084-14.838219-2.3625487-4.385492-1.5750403-8.110976-3.7617822-11.176563-6.5602913s-5.414416-6.1454196-7.046557-10.0408318c-1.632142-3.8954122-2.4482-8.1634262-2.4482-12.8041699 0-1.0125259.070962-2.1797258.212887-3.5016346.141925-1.3219089.404483-2.7422364.787682-4.2610253.383198-1.5187889.91541-3.1008369 1.596651-4.7461915.681242-1.6453546 1.561166-3.2977158 2.639798-4.9571333 1.248943-1.9688004 2.781714-3.846164 4.598358-5.6321473 1.816644-1.78598316 3.945492-3.35396852 6.386608-4.70400307 2.441115-1.35003456 5.22281-2.4258272 8.345167-3.22741022 3.122357-.80158301 6.613668-1.20236851 10.474037-1.20236851 3.519748 0 6.585289.32344093 9.196715.97033248 2.611426.64689156 4.797043 1.35705533 6.556917 2.13051263 1.759874.77345729 3.101048 1.48362107 4.023563 2.13051262.922514.64689156 1.454726.97033249 1.596652.97033249.11354 0 .326425-.13359517.63866-.40078951.312236-.26719434.667044-.60469791 1.064435-1.01252085s.808968-.86485903 1.234744-1.37112199c.425776-.50626295.808969-1.01251832 1.14959-1.51878127h.97928v19.9550984zm48.240177 20.5457356c0 2.9532006-.546405 5.7376051-1.63923 8.353297-1.092825 2.615692-2.583018 4.9008724-4.470625 6.85561-1.887607 1.9547375-4.108705 3.4945975-6.663361 4.6196263s-5.279581 1.6875348-8.174858 1.6875348c-1.532793 0-3.122333-.1898458-4.768667-.569543-1.646333-.3796972-3.250065-.9632971-4.811244-1.7508173s-3.03718-1.7648743-4.428048-2.9320916c-1.390868-1.1672174-2.611408-2.5523883-3.661655-4.1555544-1.050248-1.603166-1.880498-3.4102164-2.490777-5.4212053-.610279-2.010989-.915414-4.2399189-.915414-6.6868565 0-2.7281948.503827-5.3508789 1.511497-7.8681308s2.433998-4.7391505 4.279027-6.6657623c1.84503-1.9266118 4.08032-3.4664718 6.705938-4.6196263 2.625619-1.1531546 5.556333-1.7297232 8.79223-1.7297232 2.384346 0 4.811233.4289108 7.280733 1.2867453 2.469501.8578344 4.697695 2.1515981 6.68465 3.8813299 1.986954 1.7297318 3.611975 3.902411 4.87511 6.518103 1.263136 2.6156919 1.894694 5.6813494 1.894694 9.1970644zm-9.963108-.0843767c0-1.3500346-.078058-2.7703621-.234176-4.2610253-.156118-1.4906631-.418676-2.9531786-.787681-4.3875903-.369006-1.4344118-.844449-2.80552-1.426343-4.113366s-1.29151-2.4539519-2.128869-3.4383521c-.83736-.9844002-1.81663-1.7719085-2.93784-2.3625486s-2.391422-.8859558-3.810676-.8859558c-1.731489 0-3.264259.5695373-4.598357 1.708629-1.334098 1.1390916-2.462388 2.6367637-3.384902 4.4930612-.922515 1.8562976-1.625035 3.9727262-2.107581 6.3493496-.482546 2.3766233-.723815 4.7883676-.723815 7.2353052 0 2.5875662.205788 5.0766551.617372 7.4673413.411583 2.3906862 1.071526 4.5071148 1.979848 6.3493495.908322 1.8422346 2.086285 3.3188128 3.533923 4.4297787 1.447638 1.110966 3.193294 1.6664406 5.237018 1.6664406 1.334098 0 2.526253-.3164096 3.576501-.9492383 1.050247-.6328287 1.972748-1.4695563 2.76753-2.510208.794782-1.0406516 1.476013-2.2500394 2.043714-3.6281997.567702-1.3781602 1.028952-2.8195818 1.383765-4.3243078.354814-1.504726.610275-3.0164608.766393-4.5352496.156118-1.5187889.234176-2.9531791.234176-4.3032136zm11.538471 21.0941844v-.9703325c1.334098-.0843772 2.426907-.210941 3.278459-.3796953.851552-.1687544 1.525687-.3867254 2.022425-.6539198.496739-.2671943.844451-.5765726 1.043146-.9281441.198696-.3515715.298042-.752357.298042-1.2023685v-48.390059c0-.4500115-.049673-.8015778-.149021-1.0547092-.099348-.2531315-.347713-.5062592-.745104-.7593907-.255466-.1687543-.596081-.3726627-1.021857-.6117313s-.87993-.485165-1.362477-.73829647c-.482546-.25313148-.965085-.49922784-1.447631-.73829645l-1.234744-.61173135v-.50626043l14.306001-4.93603915h.638661v58.76839775c0 .5906401.127731 1.0406449.383197 1.3500278.255465.3093829.645754.548448 1.170878.7172023.525123.1687543 1.192162.2953181 2.001137.3796953.808974.0843772 1.766956.1828157 2.873973.2953186v.9703325zm65.569172-21.0098077c0 2.9532006-.546404 5.7376051-1.639229 8.353297-1.092825 2.615692-2.583018 4.9008724-4.470625 6.85561-1.887607 1.9547375-4.108705 3.4945975-6.663361 4.6196263s-5.279581 1.6875348-8.174858 1.6875348c-1.532793 0-3.122333-.1898458-4.768667-.569543s-3.250066-.9632971-4.811244-1.7508173c-1.561179-.7875202-3.03718-1.7648743-4.428048-2.9320916-1.390869-1.1672174-2.611408-2.5523883-3.661655-4.1555544-1.050248-1.603166-1.880499-3.4102164-2.490777-5.4212053-.610279-2.010989-.915414-4.2399189-.915414-6.6868565 0-2.7281948.503827-5.3508789 1.511497-7.8681308s2.433998-4.7391505 4.279027-6.6657623 4.08032-3.4664718 6.705938-4.6196263c2.625619-1.1531546 5.556333-1.7297232 8.79223-1.7297232 2.384346 0 4.811232.4289108 7.280733 1.2867453 2.469501.8578344 4.697695 2.1515981 6.684649 3.8813299 1.986955 1.7297318 3.611975 3.902411 4.875111 6.518103 1.263135 2.6156919 1.894693 5.6813494 1.894693 9.1970644zm-9.963108-.0843767c0-1.3500346-.078057-2.7703621-.234175-4.2610253-.156118-1.4906631-.418676-2.9531786-.787682-4.3875903-.369006-1.4344118-.844448-2.80552-1.426342-4.113366s-1.29151-2.4539519-2.128869-3.4383521c-.83736-.9844002-1.81663-1.7719085-2.93784-2.3625486s-2.391423-.8859558-3.810676-.8859558c-1.731489 0-3.264259.5695373-4.598357 1.708629-1.334099 1.1390916-2.462388 2.6367637-3.384903 4.4930612-.922514 1.8562976-1.625034 3.9727262-2.10758 6.3493496-.482546 2.3766233-.723816 4.7883676-.723816 7.2353052 0 2.5875662.205789 5.0766551.617372 7.4673413.411584 2.3906862 1.071527 4.5071148 1.979849 6.3493495.908322 1.8422346 2.086284 3.3188128 3.533923 4.4297787 1.447638 1.110966 3.193293 1.6664406 5.237018 1.6664406 1.334098 0 2.526253-.3164096 3.5765-.9492383 1.050248-.6328287 1.972749-1.4695563 2.76753-2.510208.794782-1.0406516 1.476014-2.2500394 2.043715-3.6281997.567701-1.3781602 1.028952-2.8195818 1.383765-4.3243078s.610275-3.0164608.766393-4.5352496c.156118-1.5187889.234175-2.9531791.234175-4.3032136zm44.663677-15.6096965c0 .7593944-.120635 1.4414329-.361908 2.0461359s-.553504 1.125021-.936702 1.5609696c-.383199.4359487-.816064.7734523-1.29861 1.0125209-.482547.2390686-.979278.3586011-1.490209.3586011-1.135403 0-2.00823-.1617204-2.618509-.4851662s-1.114106-.6890747-1.511497-1.0968976c-.397391-.407823-.773488-.7734518-1.128301-1.0968976s-.844448-.4851662-1.46892-.4851662c-.681241 0-1.341184.1898457-1.979848.5695429-.638664.3796973-1.248934.8789213-1.830828 1.4976871-.581893.6187659-1.107009 1.3289296-1.575363 2.1305127-.468353.801583-.84445 1.6383106-1.128301 2.5102079v24.7223841c.198696.5343887.581889.9562682 1.14959 1.2656511s1.220548.5484479 1.95856.7172023c.738011.1687543 1.490204.2953181 2.256601.3796953.766397.0843771 1.447628.168753 2.043714.2531302v.8437674h-21.373847v-.8437674c1.362483-.1406286 2.53335-.4711009 3.512634-.9914267.979285-.5203258 1.46892-1.2304896 1.46892-2.1305126v-28.1818304c0-.4218858-.049673-.7664207-.149021-1.033615-.099347-.2671943-.347713-.5273534-.745104-.7804848-.510931-.3093829-1.128297-.6679805-1.852116-1.0758034-.723819-.407823-1.440531-.7664205-2.150158-1.0758034v-.5062605l13.241567-5.3579228h.553506l-.17031 12.0658735h.17031c.198695-.4500115.461253-1.0617368.787681-1.8351941.326429-.7734573.73091-1.6031536 1.213456-2.4891137.482546-.8859602 1.050239-1.7859697 1.703095-2.7000556.652857-.9140859 1.390857-1.7367509 2.214024-2.4680196s1.745668-1.3289313 2.76753-1.7930057 2.157248-.6961081 3.406191-.6961081c.738012 0 1.433435.1265639 2.086292.3796954.652856.2531314 1.220549.611729 1.703095 1.0758034.482546.4640743.858643 1.0125176 1.128301 1.6453463s.404485 1.3289299.404485 2.0883243z" fill-rule="evenodd" transform="translate(-2 -2)"/></svg>